<svg width="71" height="72" viewBox="0 0 71 72" fill="none" xmlns="http://www.w3.org/2000/svg">
<path d="M35.5 72C55.1061 72 71 56.1061 71 36.5C71 16.8939 55.1061 1 35.5 1C15.8939 1 0 16.8939 0 36.5C0 56.1061 15.8939 72 35.5 72Z" fill="#F806CC"/>
<g clip-path="url(#clip0_9_3)">
<path d="M35 70C54.33 70 70 54.33 70 35C70 15.67 54.33 0 35 0C15.67 0 0 15.67 0 35C0 54.33 15.67 70 35 70Z" fill="#01001A"/>
<path d="M50.5556 19.8333H20.2222C16.1415 19.8333 12.8333 23.1414 12.8333 27.2222V43.5556C12.8333 47.6363 16.1415 50.9444 20.2222 50.9444H50.5556C54.6363 50.9444 57.9445 47.6363 57.9445 43.5556V27.2222C57.9445 23.1414 54.6363 19.8333 50.5556 19.8333Z" stroke="#00B2FF"/>
<path d="M26.4444 40.4444L17.1111 35L26.4444 29.1667" stroke="#00B2FF"/>
<path d="M44.3333 40.4444L53.6667 35L44.3333 29.1667" stroke="#00B2FF"/>
<path d="M28.4871 41.7416L40.9316 27.7416" stroke="#00B2FF"/>
</g>
<defs>
<clipPath id="clip0_9_3">
<rect width="70" height="70" fill="white"/>
</clipPath>
</defs>
</svg>
